<svg viewBox="0 0 512 504" fill="none" xmlns="http://www.w3.org/2000/svg">
<path fill-rule="evenodd" clip-rule="evenodd" d="M228.353 467.388C228.515 447.872 214.041 431.676 195.638 425.218C156.83 411.599 122.973 384.433 100.785 345.974C77.0207 304.783 70.5809 255.832 82.8821 209.889C95.1834 163.946 125.218 124.775 166.379 100.994C234.352 61.7207 316.99 72.2164 373.092 120.819C387.892 133.641 409.185 138.205 426.138 128.41C446.302 116.76 452.15 89.9773 435.575 73.6149C355.573 -5.35746 230.046 -24.5409 127.978 34.4317C6.03699 104.886 -36.5146 261.708 34.2718 384.404C68.7752 444.209 123.934 484.778 185.646 502.328C207.884 508.652 228.161 490.523 228.353 467.388ZM404.353 296.09C414.897 256.711 409.378 214.753 389.008 179.446C387.68 177.145 386.306 174.893 384.886 172.693C371.559 152.035 342.715 157.189 330.421 178.478L321.421 194.063C317.108 201.531 317.527 210.827 322.495 217.875C332.68 235.529 335.44 256.508 330.168 276.198C324.896 295.887 312.024 312.675 294.383 322.867C274.123 334.573 250.85 336.071 230.457 328.877C214.43 323.224 196.187 320.437 181.47 328.939L178.519 330.645C157.08 343.031 151.979 372.239 172.817 385.614C219.706 415.71 281.307 419.172 332.785 389.429C368.065 369.045 393.809 335.47 404.353 296.09ZM285.608 153.765C298.07 132.185 287.732 104.148 262.856 102.932C234.496 101.546 205.605 107.913 179.179 123.181C127.701 152.924 99.8966 208.042 102.497 263.727C103.653 288.473 131.479 298.657 152.918 286.27L155.87 284.564C170.586 276.062 177.296 258.857 180.416 242.141C184.387 220.87 197.32 201.449 217.581 189.743C225.252 185.311 233.437 182.328 241.746 180.748C258.48 177.566 275.744 170.845 284.267 156.086L285.608 153.765Z" fill="#8BC34A"/>
<path d="M451.736 172.787C471.9 161.136 498.001 169.463 503.852 192.016C532.053 300.724 485.837 419.332 383.986 478.178C365.137 489.069 345.413 497.211 325.334 502.78C302.851 509.016 282.587 490.463 282.702 467.116C282.799 447.566 297.452 431.54 315.92 425.163C326.032 421.672 335.948 417.185 345.585 411.616C413.559 372.343 445.795 295.474 431.784 222.55C428.089 203.315 434.785 182.58 451.736 172.787Z" fill="#8BC34A"/>
</svg>
